<?xml version="1.0" standalone="no"?>
<!DOCTYPE svg PUBLIC "-//W3C//DTD SVG 20010904//EN"
 "http://www.w3.org/TR/2001/REC-SVG-20010904/DTD/svg10.dtd">
<svg version="1.0" xmlns="http://www.w3.org/2000/svg"
 width="640.000000pt" height="740.000000pt" viewBox="0 0 640.000000 740.000000"
 preserveAspectRatio="xMidYMid meet">
<metadata>
Created by potrace 1.16, written by Peter Selinger 2001-2019
</metadata>
<g transform="translate(0.000000,740.000000) scale(0.100000,-0.100000)"
fill="#000000" stroke="none">
<path d="M3965 6736 c-38 -13 -77 -34 -86 -45 -10 -12 -30 -26 -46 -32 -15 -5
-35 -24 -43 -40 -9 -17 -33 -41 -54 -53 -23 -13 -48 -39 -63 -66 -14 -25 -32
-54 -41 -65 -18 -22 -33 -46 -70 -115 -13 -25 -28 -49 -33 -54 -5 -6 -9 -18
-9 -27 0 -9 -13 -41 -28 -70 -40 -76 -92 -235 -92 -280 0 -15 -5 -31 -11 -34
-15 -10 -28 -49 -44 -134 -14 -79 -33 -221 -34 -256 0 -11 -5 -54 -10 -95 -20
-156 -34 -306 -32 -340 2 -19 2 -44 2 -55 -7 -108 -13 -173 -17 -185 -10 -26
-13 -416 -4 -430 5 -8 3 -25 -6 -42 -12 -24 -21 -28 -54 -28 -43 0 -43 -1 -54
86 -7 47 -21 385 -18 429 9 172 6 269 -18 490 -6 55 -11 111 -11 124 1 14 -5
52 -13 85 -8 34 -20 97 -26 141 -22 151 -119 473 -181 600 -21 45 -39 84 -39
89 0 5 -12 23 -27 41 -33 40 -84 111 -98 137 -5 10 -15 18 -22 18 -7 0 -30 15
-50 33 -68 60 -99 77 -141 77 -23 0 -44 5 -47 10 -8 13 -97 13 -165 0 -29 -6
-65 -21 -82 -35 -16 -14 -41 -25 -54 -25 -41 0 -236 -167 -274 -235 -12 -22
-31 -49 -41 -61 -10 -11 -19 -30 -19 -42 0 -11 -8 -27 -18 -34 -27 -20 -52
-64 -52 -92 0 -13 -16 -43 -35 -66 -19 -23 -35 -50 -35 -60 0 -11 -11 -40 -25
-66 -14 -26 -25 -59 -25 -73 0 -14 -9 -50 -20 -79 -11 -29 -20 -69 -20 -90 -1
-20 -7 -48 -15 -62 -8 -14 -14 -45 -15 -70 0 -26 -5 -51 -11 -57 -6 -6 -13
-48 -15 -94 -3 -46 -8 -142 -12 -214 -8 -138 2 -414 18 -504 6 -30 10 -81 10
-113 0 -33 5 -68 11 -80 6 -11 17 -63 25 -115 8 -52 23 -116 33 -142 11 -25
22 -66 26 -90 3 -24 16 -67 29 -95 13 -28 26 -70 29 -94 3 -24 12 -49 21 -55
9 -7 20 -27 25 -44 8 -29 6 -35 -16 -53 -14 -11 -31 -20 -37 -20 -7 0 -25 -13
-41 -30 -16 -16 -35 -30 -43 -30 -21 0 -210 -199 -232 -245 -11 -22 -29 -46
-40 -53 -13 -8 -20 -23 -20 -41 0 -21 -8 -36 -30 -51 -16 -12 -30 -28 -30 -37
0 -8 -18 -36 -39 -62 -21 -25 -44 -67 -51 -91 -7 -25 -15 -49 -20 -55 -4 -5
-18 -39 -30 -75 -12 -36 -26 -74 -30 -85 -19 -45 -31 -95 -26 -104 4 -5 -5
-44 -19 -86 -15 -42 -25 -87 -24 -99 1 -11 -1 -41 -5 -66 -12 -62 -15 -122
-14 -215 1 -44 1 -95 0 -114 0 -19 4 -44 10 -55 6 -12 13 -43 14 -71 5 -88 13
-127 30 -146 11 -12 15 -28 11 -46 -3 -17 3 -47 15 -75 11 -26 18 -54 15 -62
-3 -8 5 -29 18 -46 13 -18 27 -47 31 -64 4 -17 17 -44 30 -59 13 -16 27 -41
30 -55 3 -15 9 -34 14 -42 5 -8 17 -29 26 -47 9 -18 34 -49 55 -70 21 -21 39
-46 39 -57 0 -10 11 -27 25 -38 14 -11 25 -24 25 -30 0 -6 17 -27 37 -47 21
-20 46 -48 55 -62 9 -15 30 -29 47 -32 22 -5 36 -17 50 -45 19 -37 38 -51 94
-72 15 -5 27 -16 27 -24 0 -10 20 -21 58 -32 31 -9 66 -25 78 -35 11 -11 25
-19 31 -19 6 0 26 -11 46 -25 20 -13 56 -29 79 -35 24 -7 70 -24 104 -40 33
-16 78 -32 100 -36 21 -4 48 -13 59 -20 11 -7 43 -16 70 -19 28 -4 75 -14 105
-22 30 -9 87 -19 125 -24 39 -5 81 -13 95 -18 42 -16 364 -50 475 -52 204 -2
566 9 605 19 25 7 99 21 165 32 132 22 329 70 360 88 11 6 52 22 91 36 40 14
94 38 121 55 28 17 57 31 64 31 8 0 38 15 67 34 28 19 80 50 114 68 86 46 266
225 346 345 34 51 62 95 62 99 0 3 15 32 34 63 18 31 37 67 41 81 4 14 13 32
21 40 7 9 20 40 28 70 15 53 30 97 53 150 17 38 61 264 71 360 12 117 7 451
-8 530 -7 36 -19 77 -26 92 -8 15 -14 42 -14 60 0 19 -6 43 -14 54 -8 11 -14
34 -14 50 0 16 -20 69 -46 118 -25 49 -44 92 -41 94 6 7 -24 62 -56 103 -16
20 -29 40 -29 44 0 5 -11 23 -25 41 -14 18 -25 40 -25 48 0 9 -16 26 -35 38
-19 13 -38 32 -41 43 -3 11 -14 29 -24 40 -52 59 -150 154 -185 180 -22 16
-44 34 -50 41 -16 18 -118 82 -157 98 -33 14 -88 73 -88 95 0 12 35 96 51 121
5 8 14 25 19 38 5 13 21 46 34 75 26 55 54 131 77 207 7 25 18 54 25 65 6 11
19 56 29 100 9 44 24 100 32 125 33 100 62 374 68 640 4 216 -6 334 -49 570
-16 88 -75 292 -100 345 -8 17 -19 48 -25 70 -6 23 -26 59 -46 82 -19 23 -35
47 -35 54 0 6 -20 33 -43 58 -24 26 -46 51 -48 56 -10 24 -141 134 -184 155
-74 36 -226 39 -320 6z m303 -14 c51 -23 191 -141 203 -171 4 -9 23 -32 43
-50 20 -19 36 -40 36 -46 0 -6 18 -34 40 -63 21 -29 42 -70 46 -90 3 -20 13
-47 21 -60 33 -52 89 -265 117 -442 45 -285 42 -575 -10 -990 -3 -25 -11 -58
-19 -75 -7 -16 -18 -55 -24 -85 -12 -65 -31 -133 -59 -210 -11 -30 -25 -73
-32 -95 -13 -44 -22 -64 -104 -238 -57 -119 -67 -160 -43 -174 8 -4 16 -16 20
-26 4 -10 30 -29 59 -43 84 -40 211 -136 303 -230 82 -83 115 -122 115 -137 1
-6 15 -21 33 -32 17 -11 33 -28 35 -37 2 -10 32 -61 68 -114 35 -54 64 -105
64 -115 0 -10 11 -38 25 -61 44 -75 68 -132 66 -161 -1 -15 5 -38 14 -50 8
-12 15 -34 15 -50 0 -15 6 -40 14 -55 7 -15 19 -56 26 -92 15 -79 20 -411 7
-535 -12 -122 -53 -305 -87 -390 -15 -38 -31 -86 -34 -106 -4 -21 -15 -48 -26
-62 -11 -14 -20 -31 -20 -38 0 -7 -18 -43 -40 -80 -22 -37 -40 -70 -40 -74 0
-3 -28 -47 -62 -98 -113 -169 -374 -399 -420 -371 -7 4 -8 3 -4 -4 7 -12 -57
-57 -108 -75 -17 -6 -49 -22 -71 -36 -88 -57 -348 -137 -550 -171 -66 -11
-140 -25 -165 -32 -39 -10 -397 -21 -605 -19 -70 1 -342 28 -418 42 -28 5 -90
16 -137 24 -47 8 -111 21 -143 29 -32 9 -68 16 -80 16 -12 1 -40 8 -62 16 -22
9 -58 20 -80 25 -22 5 -68 23 -102 39 -34 16 -77 32 -97 35 -19 4 -49 18 -67
31 -18 13 -38 24 -44 24 -6 0 -26 11 -44 24 -18 14 -55 30 -83 37 -31 7 -52
18 -55 28 -2 9 -27 27 -56 41 -39 19 -56 34 -69 61 -12 25 -26 39 -45 44 -29
7 -63 32 -63 46 0 4 -20 29 -45 56 -75 80 -85 93 -85 112 0 10 -14 30 -30 45
-40 35 -95 122 -105 164 -3 18 -17 45 -30 60 -12 15 -28 46 -35 69 -7 24 -21
50 -31 59 -10 9 -15 22 -12 30 3 8 -3 33 -12 57 -10 23 -17 59 -16 81 1 24 -4
45 -14 57 -18 19 -24 48 -29 140 -2 31 -7 63 -12 70 -9 15 -11 37 -12 164 -1
94 3 154 14 215 4 25 7 54 5 65 -1 11 8 49 20 85 12 36 22 83 24 105 1 22 9
56 17 75 9 19 18 44 21 55 17 69 88 228 120 269 20 27 37 55 37 62 0 13 54 57
62 49 2 -2 2 11 0 29 -3 24 1 37 15 47 10 8 31 34 45 59 32 53 208 240 227
240 8 0 31 16 52 35 22 19 45 35 52 35 8 0 21 8 30 18 14 15 15 25 6 58 -6 21
-17 44 -26 51 -8 6 -17 31 -20 55 -3 24 -16 66 -30 95 -13 28 -28 75 -32 105
-5 29 -15 67 -24 83 -9 17 -23 77 -31 135 -9 57 -21 109 -26 114 -6 6 -10 38
-10 71 0 34 -4 86 -10 116 -16 90 -26 366 -18 494 4 66 9 159 11 207 2 51 8
93 15 100 7 7 12 35 12 63 0 28 7 58 15 69 8 11 15 39 15 62 0 23 7 58 16 79
8 20 20 62 25 93 6 31 19 67 30 80 10 14 19 37 19 51 0 17 11 38 30 56 17 16
32 44 36 64 8 46 21 70 51 98 12 12 23 30 23 39 0 10 9 27 19 38 10 12 29 39
41 61 38 69 224 227 280 238 19 4 44 17 56 28 13 12 42 25 66 30 60 11 146 11
153 -1 3 -5 24 -10 46 -10 41 0 98 -29 132 -68 10 -11 30 -25 45 -31 15 -6 35
-24 45 -39 30 -48 65 -96 91 -128 14 -18 26 -35 26 -38 0 -4 15 -37 33 -74 50
-101 89 -212 132 -372 10 -36 24 -84 31 -108 8 -23 14 -53 14 -67 0 -23 4 -47
36 -200 8 -38 14 -79 13 -90 0 -11 5 -65 11 -120 18 -165 25 -285 23 -375 -7
-239 3 -525 23 -618 4 -21 9 -23 58 -21 29 1 59 -1 67 -6 12 -7 12 -6 1 7 -8
10 -9 23 -3 39 4 13 5 33 1 45 -9 22 -5 389 4 414 3 8 7 51 10 95 3 44 6 89 7
100 0 11 0 36 -2 55 -2 33 11 176 31 340 6 41 11 95 14 120 13 156 42 309 64
340 10 14 22 45 25 70 10 74 35 151 71 225 19 39 38 80 41 93 6 20 22 50 86
162 8 14 21 34 30 45 9 11 28 42 43 68 17 30 40 54 61 64 18 9 42 33 55 54 12
22 29 39 39 39 9 0 34 15 54 34 50 46 121 65 232 64 72 -1 101 -7 143 -26z"/>
<path d="M4050 6647 c-30 -7 -68 -20 -85 -29 -16 -8 -42 -21 -57 -28 -16 -8
-28 -18 -28 -25 0 -6 -16 -28 -35 -49 -24 -27 -41 -37 -54 -33 -13 3 -18 1
-15 -8 3 -7 -8 -28 -24 -47 -17 -18 -35 -52 -41 -76 -7 -24 -18 -42 -26 -42
-8 0 -30 -34 -51 -77 -20 -43 -41 -87 -46 -98 -6 -11 -15 -27 -19 -35 -26 -50
-47 -116 -65 -210 -4 -19 -16 -47 -28 -63 -12 -17 -22 -46 -23 -70 -3 -83 -16
-162 -31 -185 -10 -16 -13 -35 -8 -63 5 -30 2 -48 -9 -65 -9 -15 -15 -45 -14
-81 0 -32 -2 -85 -6 -118 -3 -33 -7 -96 -9 -140 -3 -44 -8 -90 -13 -103 -5
-12 -5 -66 -1 -119 4 -53 5 -100 3 -103 -5 -8 -16 -173 -19 -290 -1 -47 1
-123 6 -170 7 -74 5 -88 -10 -109 -17 -24 -24 -25 -130 -26 -125 -2 -152 6
-164 50 -8 30 -21 186 -18 215 4 33 1 151 -5 270 -3 69 -8 202 -10 295 -2 94
-8 214 -14 267 -5 53 -7 106 -4 118 3 11 -1 28 -8 37 -8 9 -15 42 -16 77 -1
53 -15 133 -44 256 -29 124 -42 166 -60 188 -11 14 -19 40 -19 61 0 20 -7 49
-15 65 -8 15 -15 33 -15 40 0 6 -11 27 -24 46 -13 19 -26 49 -30 67 -4 17 -22
51 -39 75 -18 24 -36 50 -42 59 -35 55 -81 109 -92 109 -7 0 -27 13 -43 29
-56 53 -210 62 -297 18 -15 -8 -42 -18 -60 -21 -17 -4 -38 -18 -47 -31 -8 -13
-29 -26 -45 -30 -20 -4 -37 -18 -51 -42 -17 -29 -23 -33 -35 -23 -11 9 -15 9
-15 1 0 -6 5 -11 12 -11 6 0 -3 -14 -21 -32 -18 -17 -39 -46 -48 -62 -9 -17
-29 -47 -44 -68 -16 -20 -32 -50 -35 -66 -3 -17 -21 -45 -40 -63 -24 -24 -34
-42 -34 -64 0 -19 -8 -39 -20 -50 -12 -11 -20 -31 -20 -50 0 -18 -7 -38 -15
-45 -9 -7 -15 -29 -15 -55 0 -29 -6 -47 -20 -60 -15 -14 -20 -31 -20 -73 0
-37 -5 -58 -15 -66 -10 -8 -16 -38 -19 -104 -3 -50 -10 -102 -17 -113 -18 -34
-21 -566 -4 -648 7 -36 15 -91 16 -121 1 -30 8 -71 14 -90 7 -19 10 -49 8 -66
-3 -18 0 -35 6 -38 6 -4 11 -22 11 -39 0 -18 14 -72 30 -119 17 -47 27 -93 24
-101 -3 -9 6 -50 20 -92 14 -43 26 -81 26 -86 0 -5 13 -31 30 -57 16 -27 30
-57 30 -67 0 -10 7 -27 17 -37 15 -17 15 -20 -3 -53 -20 -38 -42 -56 -109 -91
-95 -49 -125 -69 -130 -84 -3 -10 -22 -26 -43 -36 -20 -10 -39 -23 -41 -28 -2
-5 -11 -16 -20 -25 -27 -27 -101 -133 -101 -145 0 -6 -9 -17 -19 -23 -11 -7
-22 -25 -26 -41 -3 -16 -19 -42 -35 -57 -17 -16 -30 -37 -30 -46 0 -10 -11
-35 -25 -55 -14 -20 -25 -46 -25 -56 0 -11 -8 -32 -18 -46 -19 -27 -44 -94
-64 -167 -6 -22 -16 -44 -22 -50 -18 -15 -24 -38 -16 -60 4 -11 -1 -39 -10
-65 -9 -26 -15 -60 -13 -77 3 -17 -2 -44 -11 -61 -22 -42 -27 -220 -8 -285 10
-34 11 -56 4 -75 -11 -32 8 -156 27 -175 6 -6 11 -26 11 -44 0 -19 9 -51 20
-73 11 -22 20 -51 20 -66 0 -15 13 -53 30 -86 16 -32 30 -67 30 -76 0 -10 11
-28 25 -40 14 -12 25 -29 25 -38 0 -21 34 -77 77 -128 18 -22 33 -45 33 -52 0
-6 14 -25 31 -42 19 -19 28 -35 24 -43 -5 -7 -4 -10 2 -6 6 4 22 -5 34 -19 93
-104 212 -204 241 -204 9 0 31 -16 49 -35 19 -19 41 -35 50 -35 9 0 33 -11 53
-25 20 -14 41 -25 45 -25 5 0 19 -8 32 -18 13 -10 49 -27 79 -37 30 -10 78
-28 105 -40 28 -13 73 -26 100 -30 28 -4 56 -12 63 -17 7 -6 54 -19 105 -29
50 -10 110 -22 132 -28 22 -6 61 -11 87 -11 26 0 68 -7 94 -16 29 -10 60 -13
84 -9 27 4 48 1 70 -10 18 -10 42 -14 56 -11 13 4 79 1 146 -6 68 -6 134 -11
148 -10 14 0 97 3 185 5 206 5 546 49 577 74 7 7 55 21 106 32 51 11 102 27
114 36 13 8 37 15 54 15 17 0 43 9 57 20 14 11 35 20 48 20 12 0 37 11 54 24
18 14 45 28 61 32 16 4 38 15 49 24 11 10 45 31 75 46 30 16 61 37 68 47 7 9
20 17 29 17 19 0 219 204 240 245 8 16 30 46 47 65 18 19 45 64 61 100 15 36
38 79 50 95 31 45 65 130 80 204 4 18 15 52 25 74 11 25 16 52 13 69 -3 17 1
37 10 52 24 35 48 209 50 344 2 205 -4 316 -19 351 -8 18 -14 48 -14 65 0 17
-9 46 -20 64 -11 18 -20 50 -20 72 0 21 -4 42 -10 45 -5 3 -10 16 -10 27 0 12
-11 36 -25 54 -14 18 -25 44 -25 57 0 13 -9 36 -20 50 -11 14 -20 32 -20 41 0
9 -16 33 -35 55 -19 21 -35 45 -35 54 0 8 -20 37 -44 64 -25 27 -48 62 -52 77
-3 15 -19 37 -35 48 -16 12 -29 27 -29 34 0 7 -20 27 -44 43 -44 30 -61 55
-50 72 3 5 2 8 -3 7 -18 -5 -86 37 -111 69 -16 19 -36 33 -48 33 -12 0 -27 7
-34 16 -8 8 -27 22 -44 30 -54 26 -94 50 -131 78 -30 23 -35 33 -35 70 0 23 4
46 9 52 15 15 81 151 81 167 0 7 9 22 20 32 11 10 20 25 20 34 0 24 23 83 43
111 9 13 17 36 17 50 0 15 9 45 20 68 11 22 20 47 20 54 0 7 7 33 15 58 33
100 64 229 70 290 3 36 12 83 19 105 8 23 14 90 14 156 1 63 5 126 10 140 8
23 8 101 -1 314 -5 130 -24 277 -44 340 -8 28 -19 75 -23 106 -5 34 -18 72
-34 95 -16 24 -26 52 -26 75 0 24 -8 44 -23 60 -12 13 -27 35 -33 49 -7 14
-17 36 -23 50 -18 42 -77 118 -131 170 -27 26 -50 53 -50 59 0 6 -5 11 -11 11
-6 0 -25 11 -42 24 -49 36 -148 51 -227 33z m140 -10 c44 -12 122 -54 128 -69
2 -5 30 -34 63 -66 32 -32 59 -62 59 -66 0 -5 13 -25 29 -45 16 -20 37 -57 47
-82 10 -24 27 -54 39 -67 14 -13 24 -40 27 -66 3 -23 17 -60 32 -82 16 -24 26
-52 26 -74 0 -20 9 -63 20 -96 32 -97 44 -219 53 -549 2 -49 -1 -101 -5 -114
-5 -14 -9 -77 -10 -140 0 -66 -6 -132 -14 -153 -7 -20 -16 -70 -20 -110 -4
-40 -22 -125 -41 -188 -19 -63 -38 -132 -42 -152 -5 -20 -16 -48 -25 -62 -9
-14 -16 -38 -16 -54 0 -16 -9 -41 -20 -55 -11 -14 -20 -34 -20 -45 0 -12 -4
-24 -10 -27 -5 -3 -10 -16 -10 -29 0 -13 -9 -31 -20 -41 -11 -10 -20 -26 -20
-35 0 -18 -63 -147 -80 -164 -5 -5 -10 -34 -10 -62 0 -48 3 -55 33 -77 41 -31
94 -62 132 -80 17 -8 36 -21 44 -30 7 -10 23 -17 35 -17 13 0 32 -13 44 -30
13 -16 40 -39 62 -50 22 -11 46 -33 54 -48 8 -16 33 -41 55 -55 23 -15 41 -33
41 -41 0 -8 12 -21 26 -31 14 -9 33 -33 41 -53 8 -20 33 -56 54 -81 21 -24 39
-50 39 -57 0 -7 13 -28 28 -46 33 -39 82 -133 82 -157 0 -9 11 -33 25 -53 14
-20 25 -46 25 -57 0 -11 5 -23 10 -26 6 -3 10 -23 10 -43 0 -20 9 -52 20 -70
11 -18 20 -46 20 -63 0 -16 6 -45 14 -63 8 -19 15 -76 17 -132 7 -287 -7 -460
-43 -542 -10 -24 -18 -55 -16 -70 2 -15 -5 -47 -14 -72 -9 -25 -28 -84 -42
-131 -14 -47 -38 -103 -54 -125 -15 -21 -40 -68 -56 -104 -16 -36 -43 -81 -61
-100 -18 -19 -40 -49 -48 -65 -21 -42 -219 -245 -239 -245 -9 0 -23 -8 -30
-18 -7 -9 -38 -30 -68 -46 -30 -16 -64 -37 -75 -47 -11 -9 -33 -21 -50 -25
-16 -4 -44 -18 -61 -31 -17 -12 -41 -23 -53 -23 -13 0 -34 -9 -48 -20 -14 -11
-38 -20 -54 -20 -16 0 -45 -9 -66 -20 -21 -11 -74 -27 -118 -36 -43 -9 -88
-22 -100 -30 -40 -26 -357 -66 -560 -71 -88 -2 -171 -4 -185 -5 -14 -1 -80 4
-148 10 -67 7 -133 10 -146 6 -15 -3 -34 1 -50 11 -20 13 -38 16 -74 11 -30
-4 -61 -1 -87 9 -22 8 -62 14 -90 15 -27 0 -68 5 -90 11 -22 5 -78 18 -125 28
-47 9 -94 22 -105 28 -11 6 -42 14 -70 18 -27 4 -69 18 -92 31 -23 13 -51 24
-61 24 -11 0 -40 9 -64 20 -43 20 -51 24 -118 67 -19 12 -47 25 -63 28 -15 4
-36 18 -46 31 -10 13 -31 29 -47 35 -42 18 -132 87 -184 140 -83 85 -154 167
-168 196 -8 15 -28 41 -43 57 -16 17 -29 35 -29 42 0 6 -6 17 -14 23 -7 6 -16
26 -20 43 -3 17 -15 37 -26 45 -11 8 -20 21 -20 30 0 9 -13 45 -30 80 -16 34
-30 73 -30 86 0 12 -9 40 -20 62 -11 22 -20 55 -20 75 0 20 -5 41 -11 47 -20
20 -38 133 -26 160 8 18 7 36 -3 71 -18 66 -15 246 6 290 9 19 14 48 11 65 -2
19 4 50 15 77 15 34 17 50 9 67 -8 18 -7 26 8 40 10 10 21 34 25 53 3 19 13
48 21 64 8 15 15 35 15 43 0 8 11 33 24 56 13 23 27 56 31 73 3 18 15 40 26
50 10 9 19 27 19 39 0 12 14 34 30 50 17 16 30 37 30 47 0 11 11 30 25 44 14
14 25 29 25 34 0 11 78 119 104 145 9 9 16 20 16 24 0 4 18 15 39 25 22 9 42
25 46 35 3 9 24 28 48 41 23 13 49 29 57 35 8 7 26 16 40 20 33 10 80 46 80
61 0 6 7 17 15 24 8 7 15 23 15 35 0 12 -7 28 -15 35 -8 7 -15 20 -15 29 0 9
-7 27 -14 41 -28 49 -44 85 -57 125 -7 22 -19 55 -26 73 -8 19 -12 44 -9 56 3
13 -7 59 -24 107 -16 46 -30 101 -30 121 0 20 -5 40 -11 44 -6 3 -9 18 -6 32
3 14 -1 42 -7 61 -7 20 -14 61 -15 91 -1 30 -9 85 -16 121 -18 83 -13 622 5
644 6 7 13 55 16 106 3 63 9 98 19 109 9 10 15 36 15 67 0 37 5 54 20 68 14
12 20 31 20 59 0 23 7 50 15 60 8 11 15 32 15 46 0 15 9 35 20 45 12 11 20 31
20 50 0 22 10 40 35 65 19 19 35 44 35 56 0 11 15 41 33 65 19 24 41 58 50 75
9 18 35 49 57 70 23 22 48 51 56 66 8 16 26 30 42 34 15 3 36 17 47 29 22 26
113 62 190 76 67 12 172 -6 186 -32 5 -11 24 -25 42 -33 19 -8 48 -37 72 -71
22 -31 54 -76 72 -100 18 -23 35 -55 39 -71 6 -25 19 -55 67 -149 6 -11 14
-44 18 -73 4 -30 15 -62 23 -71 31 -34 113 -410 100 -458 -4 -14 0 -33 11 -49
9 -14 14 -32 11 -39 -2 -7 0 -57 5 -112 5 -54 12 -174 14 -268 2 -93 7 -226
10 -295 6 -117 8 -235 5 -270 -1 -8 2 -55 6 -105 4 -49 8 -104 8 -122 1 -17 3
-29 5 -27 2 2 10 -1 18 -8 9 -7 62 -12 144 -13 145 -2 163 6 162 68 0 17 -1
100 -3 182 -2 142 6 340 15 355 2 3 1 50 -3 103 -4 54 -4 104 1 113 5 8 10 54
13 102 2 48 6 114 9 147 4 33 6 83 6 110 0 28 6 65 15 82 10 22 13 45 8 68 -4
24 -1 42 8 58 14 20 26 93 31 187 2 20 12 51 24 70 12 19 26 58 31 85 20 95
29 120 95 255 36 74 75 141 86 148 12 7 21 23 21 37 0 13 14 40 30 58 17 19
30 40 30 46 0 7 16 19 35 27 21 9 43 29 57 54 33 57 157 115 253 118 11 1 40
-4 65 -11z"/>
<path d="M2113 2055 c-18 -8 -33 -20 -33 -28 0 -8 -7 -20 -15 -27 -16 -13 -16
-31 0 -42 6 -5 5 -8 -2 -8 -30 0 -4 -98 33 -132 29 -26 97 -34 113 -14 7 9 19
16 26 16 12 0 45 68 45 93 0 38 -25 91 -58 122 -40 38 -60 42 -109 20z m96
-26 c74 -59 77 -166 4 -209 -55 -33 -106 -13 -142 57 -14 28 -14 63 0 63 6 0
9 9 6 20 -10 39 38 98 81 100 7 0 30 -14 51 -31z"/>
<path d="M4241 2053 c-43 -18 -71 -68 -71 -127 0 -106 104 -175 172 -113 67
61 72 133 14 200 -31 36 -82 54 -115 40z m69 -13 c20 -1 65 -67 73 -107 7 -38
-10 -76 -49 -110 -67 -57 -154 7 -154 114 0 38 5 50 36 80 26 25 42 33 58 29
11 -3 28 -6 36 -6z"/>
<path d="M3062 1330 c-12 -12 -22 -27 -22 -35 0 -23 22 -65 35 -65 6 0 30 -14
54 -32 43 -31 43 -31 20 -44 -13 -6 -28 -10 -35 -7 -7 2 -32 -2 -56 -10 -41
-14 -43 -17 -46 -57 -2 -28 1 -46 10 -51 17 -11 103 0 148 18 19 8 44 16 55
18 11 3 32 7 46 11 19 4 50 -5 113 -36 127 -60 181 -51 162 26 -4 15 -19 29
-42 39 -46 19 -42 42 14 73 31 17 42 30 42 47 0 46 -72 71 -116 41 -11 -8 -46
-22 -78 -31 -72 -21 -126 -10 -144 30 -6 14 -17 25 -24 25 -7 1 -29 14 -48 30
-40 35 -59 37 -88 10z m78 -20 c19 -16 41 -29 48 -30 7 0 17 -10 23 -23 11
-24 58 -47 95 -47 28 0 132 34 146 48 17 17 49 15 76 -4 32 -22 24 -44 -23
-68 -57 -30 -60 -65 -8 -92 31 -16 38 -25 38 -49 0 -45 -39 -45 -132 0 -88 42
-136 53 -157 35 -9 -6 -19 -9 -24 -7 -4 3 -27 -3 -49 -13 -23 -10 -66 -20 -95
-22 l-53 -3 -3 38 c-3 33 0 38 25 48 15 6 42 12 60 14 57 6 75 15 70 35 -3 11
-2 21 2 23 3 2 1 2 -6 1 -6 -2 -23 6 -36 17 -14 10 -30 19 -36 19 -16 0 -51
38 -51 55 0 14 37 55 50 55 3 0 21 -13 40 -30z"/>
</g>
</svg>
